<svg xmlns="http://www.w3.org/2000/svg" width="65" height="36" viewBox="0 0 65 36" fill="none"><path d="M12.4 35.384C8.432 35.384 5.408 33.896 3.328 30.92C1.248 27.944 0.208 23.608 0.208 17.912C0.208 12.216 1.248 7.88 3.328 4.904C5.408 1.928 8.432 0.439999 12.4 0.439999C16.368 0.439999 19.392 1.928 21.472 4.904C23.552 7.848 24.592 12.168 24.592 17.864C24.592 23.592 23.552 27.944 21.472 30.92C19.392 33.896 16.368 35.384 12.4 35.384ZM12.4 31.4C14.864 31.4 16.672 30.312 17.824 28.136C19.008 25.928 19.6 22.504 19.6 17.864C19.6 13.224 19.024 9.832 17.872 7.688C16.72 5.544 14.896 4.472 12.4 4.472C9.936 4.472 8.112 5.56 6.928 7.736C5.776 9.88 5.2 13.256 5.2 17.864C5.2 22.504 5.776 25.928 6.928 28.136C8.112 30.312 9.936 31.4 12.4 31.4ZM42.8133 13.352C44.9573 13.352 46.8293 13.816 48.4293 14.744C50.0613 15.64 51.3093 16.92 52.1733 18.584C53.0693 20.216 53.5173 22.104 53.5173 24.248C53.5173 26.456 53.0213 28.392 52.0293 30.056C51.0693 31.72 49.6773 33.016 47.8533 33.944C46.0293 34.872 43.9013 35.336 41.4693 35.336C39.3573 35.336 37.2773 34.968 35.2293 34.232C33.1813 33.496 31.4853 32.488 30.1413 31.208L31.8693 27.56C35.0373 30.056 38.2533 31.304 41.5173 31.304C43.7893 31.304 45.5493 30.696 46.7973 29.48C48.0773 28.232 48.7173 26.52 48.7173 24.344C48.7173 22.264 48.0773 20.584 46.7973 19.304C45.5493 18.024 43.8693 17.384 41.7573 17.384C38.6853 17.384 36.2213 18.552 34.3653 20.888H31.1493V0.823999H52.0773V4.808H36.0453V15.656C37.8693 14.12 40.1253 13.352 42.8133 13.352ZM64.2025 29.24V35H58.4425V29.24H64.2025Z" fill="#6F687B"></path></svg>