<svg xmlns="http://www.w3.org/2000/svg" width="24" height="28" viewBox="0 0 24 28" fill="none"><path d="M22.5 11.667C22.5 19.8337 12 26.8337 12 26.8337C12 26.8337 1.5 19.8337 1.5 11.667C1.5 8.88222 2.60625 6.2115 4.57538 4.24237C6.54451 2.27324 9.21523 1.16699 12 1.16699C14.7848 1.16699 17.4555 2.27324 19.4246 4.24237C21.3938 6.2115 22.5 8.88222 22.5 11.667Z" stroke="#FE5722" stroke-width="2" stroke-linecap="round" stroke-linejoin="round"></path><path d="M12 15.167C13.933 15.167 15.5 13.6 15.5 11.667C15.5 9.734 13.933 8.16699 12 8.16699C10.067 8.16699 8.5 9.734 8.5 11.667C8.5 13.6 10.067 15.167 12 15.167Z" stroke="#FE5722" stroke-width="2" stroke-linecap="round" stroke-linejoin="round"></path></svg>