<svg xmlns="http://www.w3.org/2000/svg" width="65" height="36" viewBox="0 0 65 36" fill="none"><path d="M12.4 35.384C8.432 35.384 5.408 33.896 3.328 30.92C1.248 27.944 0.208 23.608 0.208 17.912C0.208 12.216 1.248 7.88 3.328 4.904C5.408 1.928 8.432 0.439999 12.4 0.439999C16.368 0.439999 19.392 1.928 21.472 4.904C23.552 7.848 24.592 12.168 24.592 17.864C24.592 23.592 23.552 27.944 21.472 30.92C19.392 33.896 16.368 35.384 12.4 35.384ZM12.4 31.4C14.864 31.4 16.672 30.312 17.824 28.136C19.008 25.928 19.6 22.504 19.6 17.864C19.6 13.224 19.024 9.832 17.872 7.688C16.72 5.544 14.896 4.472 12.4 4.472C9.936 4.472 8.112 5.56 6.928 7.736C5.776 9.88 5.2 13.256 5.2 17.864C5.2 22.504 5.776 25.928 6.928 28.136C8.112 30.312 9.936 31.4 12.4 31.4ZM52.5573 30.92V35H32.5893V30.92H40.0773V6.728L33.1172 11.048V6.488L42.1893 0.823999H45.0693V30.92H52.5573ZM64.2025 29.24V35H58.4425V29.24H64.2025Z" fill="#6F687B"></path></svg>