<svg xmlns="http://www.w3.org/2000/svg" width="65" height="36" viewBox="0 0 65 36" fill="none"><path d="M12.4 35.384C8.432 35.384 5.408 33.896 3.328 30.92C1.248 27.944 0.208 23.608 0.208 17.912C0.208 12.216 1.248 7.88 3.328 4.904C5.408 1.928 8.432 0.439999 12.4 0.439999C16.368 0.439999 19.392 1.928 21.472 4.904C23.552 7.848 24.592 12.168 24.592 17.864C24.592 23.592 23.552 27.944 21.472 30.92C19.392 33.896 16.368 35.384 12.4 35.384ZM12.4 31.4C14.864 31.4 16.672 30.312 17.824 28.136C19.008 25.928 19.6 22.504 19.6 17.864C19.6 13.224 19.024 9.832 17.872 7.688C16.72 5.544 14.896 4.472 12.4 4.472C9.936 4.472 8.112 5.56 6.928 7.736C5.776 9.88 5.2 13.256 5.2 17.864C5.2 22.504 5.776 25.928 6.928 28.136C8.112 30.312 9.936 31.4 12.4 31.4ZM46.2213 17.432C48.2053 18.008 49.7253 19 50.7812 20.408C51.8373 21.816 52.3653 23.592 52.3653 25.736C52.3653 28.712 51.3093 31.064 49.1973 32.792C47.1173 34.488 44.2853 35.336 40.7013 35.336C38.4293 35.336 36.2533 34.984 34.1733 34.28C32.1253 33.544 30.4133 32.52 29.0373 31.208L30.8133 27.56C33.8853 30.056 37.1333 31.304 40.5573 31.304C45.2293 31.304 47.5653 29.336 47.5653 25.4C47.5653 23.48 46.9573 22.056 45.7413 21.128C44.5253 20.168 42.6853 19.688 40.2213 19.688H36.0453V15.656H39.4532C41.8213 15.656 43.6293 15.16 44.8773 14.168C46.1253 13.176 46.7493 11.736 46.7493 9.848C46.7493 8.12 46.2213 6.792 45.1653 5.864C44.1413 4.936 42.6853 4.472 40.7973 4.472C37.5973 4.472 34.4293 5.72 31.2933 8.216L29.5173 4.568C30.8613 3.288 32.5573 2.28 34.6053 1.544C36.6853 0.807999 38.8293 0.439999 41.0373 0.439999C44.2373 0.439999 46.7813 1.24 48.6693 2.84C50.5893 4.408 51.5493 6.536 51.5493 9.224C51.5493 11.176 51.0853 12.872 50.1573 14.312C49.2293 15.752 47.9173 16.792 46.2213 17.432ZM64.2025 29.24V35H58.4425V29.24H64.2025Z" fill="#6F687B"></path></svg>